# xmcd CD database file
#
# Track frame offsets:
#	150
#	24372
#	46030
#	74137
#	93904
#	115451
#	137024
#	163379
#	186519
#	214140
#	240413
#	267846
#	299464
#
# Disc length: 4088 seconds
#
# Revision: 0
# Processed by: cddbd v1.5.1PL0 Copyright (c) Steve Scherf et al.
# Submitted via: CDex 1.51
#
DISCID=c60ff60d
DTITLE=Juan Formell Y Los Van Van - Chapeando
DYEAR=2004
DGENRE=Salsa
TTITLE0=Chapeando
TTITLE1=Corazon
TTITLE2=Despues de todo
TTITLE3=No pidas mas presta'o
TTITLE4=Por que no te enamoras
TTITLE5=Te recordaremos
TTITLE6=Anda ven y quiereme
TTITLE7=Nada
TTITLE8=La buena 
TTITLE9=Agua
TTITLE10=Ven, ven, ven
TTITLE11=El montuno
TTITLE12=Chapeando (repris)
EXTD=YEAR: 2004
EXTT0=
EXTT1=
EXTT2=
EXTT3=
EXTT4=
EXTT5=
EXTT6=
EXTT7=
EXTT8=
EXTT9=
EXTT10=
EXTT11=
EXTT12=
PLAYORDER=
